<svg width="20" height="20" viewBox="0 0 20 20" fill="none" xmlns="http://www.w3.org/2000/svg">
<g id="17 Clock Icon">
<path id="Vector" d="M12.5 9.16667H10.8333V5.83334C10.8333 5.61232 10.7455 5.40036 10.5892 5.24408C10.433 5.0878 10.221 5.00001 9.99999 5.00001C9.77898 5.00001 9.56702 5.0878 9.41074 5.24408C9.25446 5.40036 9.16666 5.61232 9.16666 5.83334V10C9.16666 10.221 9.25446 10.433 9.41074 10.5893C9.56702 10.7455 9.77898 10.8333 9.99999 10.8333H12.5C12.721 10.8333 12.933 10.7455 13.0892 10.5893C13.2455 10.433 13.3333 10.221 13.3333 10C13.3333 9.77899 13.2455 9.56703 13.0892 9.41075C12.933 9.25447 12.721 9.16667 12.5 9.16667ZM9.99999 1.66667C8.35182 1.66667 6.74065 2.15541 5.37024 3.07109C3.99983 3.98677 2.93173 5.28826 2.301 6.81098C1.67027 8.33369 1.50524 10.0092 1.82678 11.6258C2.14833 13.2423 2.942 14.7271 4.10744 15.8926C5.27287 17.058 6.75773 17.8517 8.37424 18.1732C9.99075 18.4948 11.6663 18.3297 13.189 17.699C14.7117 17.0683 16.0132 16.0002 16.9289 14.6298C17.8446 13.2593 18.3333 11.6482 18.3333 10C18.3333 8.90566 18.1178 7.82202 17.699 6.81098C17.2802 5.79993 16.6664 4.88127 15.8925 4.10745C15.1187 3.33363 14.2001 2.7198 13.189 2.30101C12.178 1.88222 11.0943 1.66667 9.99999 1.66667ZM9.99999 16.6667C8.68145 16.6667 7.39252 16.2757 6.29619 15.5431C5.19986 14.8106 4.34538 13.7694 3.8408 12.5512C3.33621 11.3331 3.20419 9.99261 3.46143 8.6994C3.71866 7.4062 4.3536 6.21831 5.28595 5.28596C6.2183 4.35361 7.40619 3.71867 8.69939 3.46144C9.9926 3.2042 11.333 3.33622 12.5512 3.84081C13.7694 4.34539 14.8106 5.19988 15.5431 6.2962C16.2757 7.39253 16.6667 8.68146 16.6667 10C16.6667 11.7681 15.9643 13.4638 14.714 14.7141C13.4638 15.9643 11.7681 16.6667 9.99999 16.6667Z" fill="#00CCCC"/>
</g>
</svg>
