<svg width="20" height="20" viewBox="0 0 20 20" fill="none" xmlns="http://www.w3.org/2000/svg">
<path d="M1.75 3.85572C1.75 2.69276 2.69276 1.75 3.85572 1.75H9.30067C9.85915 1.75 10.3947 1.97185 10.7896 2.36675L17.6332 9.21035C18.4556 10.0327 18.4556 11.366 17.6332 12.1883L12.1883 17.6333C11.366 18.4556 10.0327 18.4556 9.21035 17.6332L2.36675 10.7896C1.97185 10.3947 1.75 9.85915 1.75 9.30067V3.85572Z" stroke="#00CCCC" stroke-width="1.5" stroke-linejoin="round"/>
<path d="M7.75 6.5C7.75 7.19036 7.19036 7.75 6.5 7.75C5.80964 7.75 5.25 7.19036 5.25 6.5C5.25 5.80964 5.80964 5.25 6.5 5.25C7.19036 5.25 7.75 5.80964 7.75 6.5Z" stroke="#00CCCC" stroke-width="1.5" stroke-linejoin="round"/>
</svg>
